Coordinates
version=1
nRows=13
nColumns=38
inDegrees=no

Units are S.I. units (second, meters, Newtons, ...)
If the header above contains a line with 'inDegrees', this indicates whether rotational values are in degrees (yes) or radians (no).

endheader
time	pelvis_tilt	pelvis_list	pelvis_rotation	pelvis_tx	pelvis_ty	pelvis_tz	hip_flexion_r	hip_adduction_r	hip_rotation_r	knee_angle_r	ankle_angle_r	subtalar_angle_r	mtp_angle_r	hip_flexion_l	hip_adduction_l	hip_rotation_l	knee_angle_l	ankle_angle_l	subtalar_angle_l	mtp_angle_l	lumbar_extension	lumbar_bending	lumbar_rotation	arm_flex_r	arm_add_r	arm_rot_r	elbow_flex_r	pro_sup_r	wrist_flex_r	wrist_dev_r	arm_flex_l	arm_add_l	arm_rot_l	elbow_flex_l	pro_sup_l	wrist_flex_l	wrist_dev_l
0.88	-2.01016	1.53176	0.561519	0.757075	-0.271616	1.01496	0.625125	-0.00544348	-0.0449254	1.04733	-0.0842414	0	0	0.150822	-0.0941832	-0.259599	0.705663	-0.0209484	0	0	-0.0883309	0.0390657	0.051783	-0.323845	-0.262589	0.197458	0.504274	1.06718	0	0	0.363178	-0.475368	1.00236	0.49385	1.16169	0	0
0.89	-2.07034	1.52594	0.627585	0.757099	-0.281944	1.01429	0.633505	-0.00539414	-0.0435286	0.996843	-0.0631225	0	0	0.144152	-0.0992389	-0.25624	0.702213	-0.0167246	0	0	-0.0829939	0.0427578	0.0470625	-0.326384	-0.263358	0.192081	0.50899	1.07562	0	0	0.374857	-0.475507	0.997414	0.501123	1.17027	0	0
0.9	-2.15351	1.51991	0.716115	0.757088	-0.292355	1.01328	0.641237	-0.00732227	-0.0412447	0.942787	-0.0442693	0	0	0.139332	-0.102832	-0.2523	0.699138	-0.01238	0	0	-0.0758455	0.0451834	0.0432102	-0.329559	-0.263726	0.186284	0.514023	1.08258	0	0	0.385904	-0.475431	0.993044	0.508486	1.17857	0	0
0.91	-2.23986	1.51402	0.806938	0.756998	-0.302926	1.01199	0.646657	-0.0106442	-0.0385432	0.886181	-0.0249723	0	0	0.135018	-0.104925	-0.247873	0.69604	-0.00800065	0	0	-0.0679736	0.0462773	0.0406079	-0.333206	-0.263829	0.180568	0.519259	1.08872	0	0	0.396472	-0.475495	0.98981	0.516426	1.1868	0	0
0.92	-2.32077	1.5083	0.891738	0.756834	-0.313628	1.0105	0.649762	-0.0154505	-0.0368697	0.827278	-0.00561304	0	0	0.130695	-0.105774	-0.242471	0.692977	-0.00343411	0	0	-0.0600603	0.0463917	0.0389008	-0.33709	-0.263626	0.174534	0.524483	1.09411	0	0	0.406602	-0.475703	0.987663	0.52491	1.19438	0	0
0.93	-2.39633	1.50209	0.970727	0.756554	-0.324443	1.00882	0.651571	-0.0206297	-0.0360377	0.766199	0.0130069	0	0	0.126727	-0.106535	-0.237218	0.690036	0.0013038	0	0	-0.0516106	0.0460438	0.0378986	-0.340832	-0.263017	0.168523	0.528814	1.09886	0	0	0.416102	-0.47579	0.985783	0.533706	1.20155	0	0
0.94	-2.46436	1.49506	1.0416	0.756154	-0.335408	1.00697	0.652408	-0.0250251	-0.0357121	0.702349	0.0289599	0	0	0.123377	-0.107694	-0.233067	0.687714	0.00592231	0	0	-0.0421901	0.0455312	0.0373149	-0.344083	-0.262272	0.163523	0.531971	1.10379	0	0	0.424651	-0.475981	0.984708	0.542531	1.20982	0	0
0.95	-2.51482	1.48781	1.09466	0.755684	-0.34649	1.00508	0.650725	-0.0279913	-0.0359853	0.633617	0.039514	0	0	0.119706	-0.109673	-0.229941	0.685846	0.0106435	0	0	-0.0328432	0.0454602	0.0364794	-0.346941	-0.261511	0.158296	0.534857	1.10957	0	0	0.431449	-0.476192	0.981458	0.551568	1.21901	0	0
0.96	-2.54684	1.4805	1.12995	0.755237	-0.357629	1.00316	0.645808	-0.0295264	-0.035586	0.559644	0.0415978	0	0	0.11583	-0.112553	-0.225949	0.684523	0.0150526	0	0	-0.0241274	0.0464132	0.0349719	-0.3495	-0.260983	0.152992	0.537719	1.11449	0	0	0.43736	-0.476393	0.978487	0.560811	1.22734	0	0
0.97	-2.56086	1.47376	1.14759	0.754715	-0.368868	1.00131	0.635714	-0.028873	-0.0299558	0.478758	0.0311133	0	0	0.110738	-0.116705	-0.221966	0.683165	0.0191255	0	0	-0.0166031	0.0484272	0.0330849	-0.351626	-0.260458	0.147394	0.54046	1.11979	0	0	0.442543	-0.47638	0.975547	0.569634	1.23669	0	0
0.98	-2.55781	1.46808	1.14854	0.754166	-0.380213	0.999603	0.618955	-0.0262909	-0.0164631	0.391224	0.00696133	0	0	0.103719	-0.122279	-0.21853	0.681688	0.0226385	0	0	-0.0110547	0.0516459	0.0309722	-0.352792	-0.260106	0.14327	0.542189	1.12522	0	0	0.447286	-0.476068	0.972655	0.578168	1.24669	0	0
0.99	-2.53471	1.46392	1.13019	0.753674	-0.391709	0.998164	0.592315	-0.022415	0.0071329	0.291495	-0.0380515	0	0	0.0938598	-0.129894	-0.216491	0.679823	0.0251941	0	0	-0.00816812	0.05654	0.0281146	-0.353339	-0.260146	0.139333	0.543824	1.12936	0	0	0.451096	-0.475177	0.968177	0.586259	1.25848	0	0
1	-2.50373	1.46152	1.10517	0.753281	-0.403329	0.996899	0.563776	-0.0205081	0.0327516	0.201063	-0.0886999	0	0	0.0817336	-0.138167	-0.215895	0.67795	0.0266522	0	0	-0.00777605	0.0616909	0.0240613	-0.353673	-0.260928	0.136503	0.546608	1.13429	0	0	0.453931	-0.474539	0.962666	0.595087	1.27174	0	0
